<svg t="1679466102285" class="icon" viewBox="0 0 1082 1024" version="1.1" xmlns="http://www.w3.org/2000/svg" p-id="6385" width="200" height="200"><path d="M297.626016 339.510114v4.245853c-55.012943 28.580423-98.170797 87.531187-88.546862 149.320846 0.22478 1.373659 0.582764 2.780618 0.832521 4.179252l-0.832521 1.814894-115.029333 92.16V339.510114c0-47.095675 37.26361-85.433236 84.359285-85.433236h34.383089c47.104 0 84.833821 38.337561 84.833821 85.433236z" fill="#F8A805" p-id="6386"></path><path d="M1030.701789 294.012878l-28.305691 24.642602a33.650472 33.650472 0 0 1-39.178407 3.663089c-41.509463-24.625951-135.284553-55.187772-135.284553 170.749919 0 118.825626-58.742634 246.301138-103.881886 361.68013-6.243902 1.623415-12.113171 3.221854-18.523577 4.70374-29.104911 6.801691-61.273496 12.054894-91.527285 15.518179V706.085463c0-7.317854-1.315382-14.444228-2.88052-21.29587-0.882472-3.771317-1.565138-7.451057-2.88052-11.055869-0.882472-2.397659-2.497561-4.737041-2.497561-7.018147v-0.024975c-13.753236-29.937431-43.515837-51.366504-77.815675-54.44683a107.653203 107.653203 0 0 0-18.523577 0.058277 94.574309 94.574309 0 0 0-51.632911 21.429073 61.23187 61.23187 0 0 0-3.255154 2.780618 97.26335 97.26335 0 0 0-25.291968 37.197008c-1.923122 5.028423-3.413333 10.281626-4.429008 15.701333-0.274732 1.540163-0.083252 3.113626-0.283057 4.678765-0.524488 3.929496-0.333008 7.925593-0.333008 11.988292v168.810147a742.882862 742.882862 0 0 1-91.543935-15.434927 650.647935 650.647935 0 0 1-19.164618-4.70374c-44.123577-114.030309-83.468488-241.430894-103.332423-357.492553-0.249756-1.406959-0.557789-2.805593-0.774244-4.179252-9.623935-61.789659 32.57652-120.823675 88.746667-149.404098 22.394797-11.447154 47.020748-18.065691 71.438569-18.065691H667.681301c9.573984 0 11.413854-338.302959 286.520195-291.531967l-17.416325 67.900358 99.752585 147.672455a33.783675 33.783675 0 0 1-5.827642 44.365008z" fill="#A18671" p-id="6387"></path><path d="M988.701138 839.863154c-42.974699 40.743545-100.693333 74.94348-170.20878 100.501854-88.555187 32.54322-192.237268 49.75974-299.857171 49.75974s-211.335285-17.21652-299.890472-49.75974c-69.490472-25.558374-127.234081-59.758309-170.200455-100.501854-25.308618-23.959935-21.545626-65.336195 7.259577-84.975349 21.229268-14.469203 49.818016-12.487805 68.441496 5.169951 42.641691 40.468813 108.727154 73.594797 188.998765 94.690862 6.218927 1.64839 12.546081 3.221854 18.923187 4.70374a777.365854 777.365854 0 0 0 91.086048 15.434927c30.753301 3.413333 62.67213 5.194927 95.381854 5.194926 32.401691 0 64.020813-1.756618 94.441106-5.111674a768.341333 768.341333 0 0 0 91.993496-15.518179c6.410407-1.481886 12.737561-3.080325 18.981463-4.70374 80.27161-21.129366 146.298797-54.247024 188.940488-94.690862a54.088846 54.088846 0 0 1 37.29691-14.76891c10.839415 0 21.71213 3.163577 31.144586 9.598959 28.805203 19.64748 32.568195 61.02374 7.267902 84.975349zM538.965333 489.904911h-22.178341c-72.171187 0-130.67239-58.501203-130.67239-130.672391v-33.467317h283.523122v33.467317c0 72.162862-58.501203 130.67239-130.672391 130.672391z" fill="#F8A805" p-id="6388"></path><path d="M1059.332163 234.27122l-92.826017-137.399155 14.344326-55.878764a27.523122 27.523122 0 0 0-22.045139-33.966829C884.860878-5.53626 821.697561 6.427057 771.08865 42.733268c-94.824065 68.025236-117.035707 203.101659-125.402536 255.37561H369.580748c-16.733659 0-33.750374 2.547512-50.450732 7.525984-14.202797-45.763642-56.494829-79.05613-106.329496-79.05613h-34.383089c-62.189268 0-111.874081 50.750439-111.874081 112.948032v251.712521c0 10.573008 5.594537 20.213593 15.126894 24.792455 3.796293 1.831545 7.634211 2.714016 11.688585 2.714016 6.12735 0 12.088195-2.039675 17.058342-6.010797l79.688845-72.52917c19.905561 98.92839 50.217626 195.226016 77.740748 271.576455-51.866016-18.931512-95.115447-43.649041-124.653268-71.68-27.747902-26.307642-71.022309-29.646049-102.882862-7.933919a82.419512 82.419512 0 0 0-35.881626 61.814634 81.337236 81.337236 0 0 0 25.18374 65.852358c46.055024 43.674016 106.496 79.45574 179.641236 106.354472 91.593886 33.658797 198.572748 51.449756 309.381203 51.449756 110.78348 0 217.754016-17.782634 309.347902-51.449756 73.111935-26.882081 133.552911-62.65548 179.624586-106.337822a81.337236 81.337236 0 0 0 25.208715-65.869008 82.419512 82.419512 0 0 0-35.881626-61.806309 82.452813 82.452813 0 0 0-46.637788-14.385951 81.420488 81.420488 0 0 0-56.245074 22.31987c-29.246439 27.739577-71.896455 52.257301-123.038178 71.113886 41.925724-104.423024 84.417561-212.226081 84.417561-318.139317 0-120.690472 27.789528-149.537301 39.736195-156.347317 17.058341-9.715512 41.16813 1.623415 54.047219 9.265951a61.057041 61.057041 0 0 0 71.24709-6.585235l28.297365-24.642602a61.373398 61.373398 0 0 0 10.573009-80.504715zM413.171512 353.105171h231.090992v6.119024c0 56.886114-48.419382 103.923512-105.297171 103.923512h-22.178341c-56.886114 0-103.61548-47.037398-103.61548-103.923512v-6.119024z m-291.606894-13.603382c0-31.852228 24.99226-57.918439 56.844488-57.918439h34.391414c27.42322 0 49.701463 19.156293 55.129496 45.355707 0.024976 0.141528 0.099902 1.082276 0.183155 2.264455-25.308618 16.150894-47.054049 37.713171-62.380748 62.081041-18.756683 29.829203-26.790504 62.222569-24.434472 94.424455l-59.733333 48.327805V339.510114z m394.298276 299.932097h6.768391c65.918959 0 63.854309 61.598179 63.854308 66.643252v143.826212c-44.01535 3.513236-90.786341 3.496585-134.801691-0.058277V706.085463c0-2.797268-1.831545-66.643252 64.187318-66.643252z m416.043708 140.596033a26.599024 26.599024 0 0 1 18.390374-7.242927c5.611187 0 11.014244 1.665041 15.643057 4.828618a27.648 27.648 0 0 1 12.029918 20.729756c0.382959 4.786992-0.166504 13.944715-8.183675 21.537301l-0.01665 0.01665c-40.618667 38.51239-94.707512 70.347967-160.759675 94.632585-85.583089 31.452618-185.993366 48.078049-290.383089 48.078049-104.398049 0-204.808325-16.625431-290.38309-48.069723-66.085463-24.309593-120.182634-56.145171-160.792975-94.657561-8.017171-7.58426-8.566634-16.750309-8.192-21.537301a27.656325 27.656325 0 0 1 12.029918-20.729756 27.772878 27.772878 0 0 1 15.634732-4.820293 26.64065 26.64065 0 0 1 18.382049 7.217951c46.263154 43.898797 115.745301 78.947902 200.870504 101.317724 6.310504 1.681691 12.954016 3.330081 19.755707 4.91187a806.429138 806.429138 0 0 0 94.282927 15.98439c63.912585 7.093073 132.071024 7.118049 195.808781 0.083252a798.137236 798.137236 0 0 0 95.24865-16.059317c5.810992-1.348683 12.071545-2.897171 19.780683-4.89522 85.133528-22.419772 154.599024-57.460553 200.853854-101.326048z m80.746146-506.780098h-0.008325l-28.289041 24.642602a6.102374 6.102374 0 0 1-7.101398 0.749268c-39.936-23.676878-78.756423-27.140163-109.309919-9.732163-45.438959 25.874732-67.525724 92.659512-67.525724 204.15896 0 97.288325-42.125528 202.160911-82.852422 303.578536-4.603837 11.47213-9.324228 23.227317-13.928065 34.857626-1.656715 0.39961-2.805593 0.782569-4.362407 1.148878-18.856585 4.404033-38.51239 8.075447-57.768585 11.030895v-137.61561c0-23.377171-10.090146-121.24826-111.291317-121.24826-1.64839 0-3.629789-0.266407-5.319805-0.341333a120.881951 120.881951 0 0 0-12.404553 0.008325c-1.85652 0.108228-3.321756 0.41626-5.194927 0.41626-101.400976 0-110.625301 97.096846-110.625301 121.165008v137.474081c-19.256195-2.938797-39.220033-6.576911-57.810211-10.906016-1.548488-0.357984-3.288455-0.732618-4.828618-1.098927-33.234211-87.43961-75.259837-213.208455-96.805463-339.068878-0.22478-1.265431-0.499512-2.522537-0.682667-3.646439-8.225301-52.765138 32.376715-99.486179 73.861203-120.590569 15.626407-7.992195 33.991805-12.845789 47.745041-14.385951v5.369756c0 87.223154 71.413593 158.94478 158.636748 158.94478h22.170016c87.23148 0 160.318439-71.721626 160.318439-158.94478v-33.467317c0-0.491187-1.115577-0.940748-1.140553-1.40696 0.840846-4.220878 1.148878-9.490732 2.197854-16.092617 7.892293-49.526634 26.082862-165.521691 103.082667-220.759415 31.594146-22.652878 70.597724-32.618146 116.452943-29.754276l-9.673886 37.430113a27.489821 27.489821 0 0 0 3.821268 22.228293l99.710959 147.614179a6.268878 6.268878 0 0 1-1.073951 8.241951z" fill="#231F20" p-id="6389"></path><path d="M869.767285 175.337106m-20.629854 0a20.629854 20.629854 0 1 0 41.259707 0 20.629854 20.629854 0 1 0-41.259707 0Z" fill="#231F20" p-id="6390"></path></svg>